<?xml version="1.0" encoding="UTF-8"?><svg id="a" xmlns="http://www.w3.org/2000/svg" viewBox="0 0 586.34 585.71"><defs><style>.b{fill:#3b82f6;}</style></defs><path class="b" d="M329.06,543.07c10.02-2.06,20.04-4.12,30.48-6.27-.79,7.04-1.52,14.03,.99,20.78,2.46,6.6,6.81,11.83,13.43,16.87-40.52,11.39-80.34,14.25-122.12,8.07,49.07-74.18,97.55-147.46,146.68-221.73-3.65,0-5.97-.04-8.29,0-47.13,.93-81.61-20.29-104.74-60.58-9.01-15.69-12.45-33.13-12.64-51.19-.34-31.98-20.69-59.58-51.07-69.28-41.22-13.16-85.5,13.74-92.86,56.43-8.34,48.38,33.67,91.09,82.24,83.72,18.47-2.8,33.08-12.14,45.24-25.86,1.99-2.25,3.83-4.63,6.1-7.4,3.29,7.28,6.08,14.28,9.58,20.91,3.47,6.58,7.67,12.77,12.09,20-46.98,71.45-94.3,143.41-141.61,215.36C41.67,484.22-30.95,353.8,13.18,207.15,56.87,61.98,206.37-29.58,363.78,8.74c149.82,36.48,238.89,178.25,220.07,321.85-5.79-4.57-11.52-8.64-18.71-9.58-6.94-.9-13.66-.1-20.58,2.82,7.31-82.87-16.89-154.28-76.24-212.5-40.04-39.28-88.62-62.44-144.3-68.96C208.15,28.81,100.56,93.07,57.83,202.82c-41.15,105.68-4.44,217.75,73.34,282.85,27.12-41.29,54.19-82.51,81.58-124.21-3.16-1.36-5.95-.7-8.59-.6-19.57,.79-38.09-3.16-55.59-11.98-40.24-20.28-67.1-64.75-61.77-111.69,5.93-52.19,43.8-91.41,95.88-99.74,58.73-9.4,110.85,27.79,126.03,78.09,3.4,11.26,5.22,22.76,5.41,34.55,.69,43.2,40.38,76.12,83.2,69.92,24.12-3.49,54.55-24.1,60.41-58.44,8.16-47.76-28.36-84.26-68.6-84.99-25.14-.45-45.45,9.25-61.04,28.93-1.23,1.55-2.45,3.1-4.45,5.62-4.48-14.77-11.22-27.51-19.97-39.42,4.55-6.15,10.45-10.41,16.31-14.54,65.61-46.29,163.88-14.71,179.12,74.97,4.77,28.09-1.8,54.18-17.39,77.92-16.95,25.82-34.12,51.49-51.19,77.23-25.2,38.03-50.39,76.06-75.59,114.09-7.81,11.78-15.67,23.52-23.49,35.29-1.09,1.65-2.09,3.36-3.13,5.04,.25,.46,.51,.92,.76,1.37Z"/><path class="b" d="M156.27,550.93c7.46-11.62,14.41-22.45,21.57-33.6,25.77,12.52,52.21,21.34,81.15,25.53-8.07,12.72-15.7,24.73-23.53,37.06-27.66-6-53.9-15.14-79.19-28.99Z"/><path class="b" d="M399.94,505.45c4.02-3.01,7.23-5.42,10.78-8.08,10.44,7.74,20.76,15.4,31.08,23.05,.31-.15,.62-.31,.94-.46-4.05-12.46-8.1-24.93-12.21-37.6,3.33-2.47,6.37-4.73,9.87-7.32,10.62,7.89,21.09,15.66,31.56,23.43-2.8-13.17-8.15-25.35-12.36-38.36,3.22-2.41,6.4-4.78,10.24-7.65,6.83,19.24,13.45,37.91,20.29,57.19-3.62,2.73-7.26,5.48-11.29,8.52-10.34-7.47-20.52-14.83-30.7-22.19-.3,.21-.6,.42-.9,.63,4.08,12.12,8.15,24.24,12.34,36.67-3.63,2.68-7.16,5.3-11.14,8.24-16-11.9-31.95-23.76-48.51-36.07Z"/><path class="b" d="M549.27,430.26c2.81,3.52,2.45,4.69-4.1,13.4-16.73-10.9-33.5-21.83-50.67-33.02,2.32-3.91,4.33-7.32,6.59-11.14,5.65,3.75,10.96,7.27,16.96,11.26-.36-8.07,2.28-14.24,7.89-19.07,3.15-2.72,6.69-4.36,10.91-4.61,11.01-.65,21.54,6.38,24.71,16.62,3.18,10.25-.97,19.44-12.31,26.55Zm-9.55-7.62c5.86,.09,10.56-4.71,10.54-10.77-.02-5.93-6.21-11.9-12.23-11.8-5.42,.1-10.35,5.47-10.36,11.29,0,5.46,6.1,11.18,12.04,11.27Z"/><path class="b" d="M414.6,545.33c.12,11.6-9.29,21.29-20.84,21.48-11.48,.19-21.07-9.27-21.3-21.02-.21-10.92,9.52-20.96,20.6-21.23,11.48-.28,21.43,9.31,21.54,20.77Z"/><path class="b" d="M559.78,334.93c11.54,.04,20.71,9.23,20.68,20.75-.03,11.6-9.61,20.89-21.41,20.77-11.36-.12-20.68-9.49-20.73-20.86-.05-11.5,9.5-20.7,21.46-20.66Z"/><path class="b" d="M522.48,454.28h9.73c0,1.76,.14,3.5-.02,5.22-.91,9.96-11.03,20.56-21.57,22.69-9.58,1.93-19.55-3.23-24.48-12.68-4.76-9.12-2.33-20.48,6-27.96,7.99-7.18,17.64-8.03,26.64-2.23,2,1.29,3.82,2.84,6.25,4.67-7.35,8.5-14.41,16.67-21.58,24.97,9.27,3.43,15.17-1.12,19.04-14.67Zm-11.57-5.86c-6.35-2.75-9.87-2.13-13.33,1.76-3.61,4.06-3.8,7.94-.25,13.48,4.47-5.02,8.81-9.89,13.58-15.24Z"/></svg>